<?xml version="1.0" encoding="UTF-8" standalone="no"?>
<!DOCTYPE svg PUBLIC "-//W3C//DTD SVG 1.1//EN"
 "http://www.w3.org/Graphics/SVG/1.1/DTD/svg11.dtd">
<!-- Generated by graphviz version 2.38.0 (20140413.2041)
 -->
<!-- Title: ChattingBackend Pages: 1 -->
<svg width="548pt" height="349pt"
 viewBox="0.00 0.00 547.60 348.60" xmlns="http://www.w3.org/2000/svg" xmlns:xlink="http://www.w3.org/1999/xlink">
<g id="graph0" class="graph" transform="scale(1 1) rotate(0) translate(28.8 319.8)">
<title>ChattingBackend</title>
<polygon fill="white" stroke="none" points="-28.8,28.8 -28.8,-319.8 518.8,-319.8 518.8,28.8 -28.8,28.8"/>
<text text-anchor="middle" x="245" y="-276.6" font-family="Arial Bold" font-size="13.00">ChattingBackend domain model</text>
<!-- m_AccessToken -->
<g id="node1" class="node"><title>m_AccessToken</title>
<path fill="none" stroke="black" d="M12,-145.5C12,-145.5 132,-145.5 132,-145.5 138,-145.5 144,-151.5 144,-157.5 144,-157.5 144,-176.5 144,-176.5 144,-182.5 138,-188.5 132,-188.5 132,-188.5 12,-188.5 12,-188.5 6,-188.5 0,-182.5 0,-176.5 0,-176.5 0,-157.5 0,-157.5 0,-151.5 6,-145.5 12,-145.5"/>
<text text-anchor="start" x="34.5" y="-175.7" font-family="Arial Bold" font-size="11.00">AccessToken</text>
<polyline fill="none" stroke="black" points="0,-168.5 144,-168.5 "/>
<text text-anchor="start" x="7" y="-155" font-family="Arial" font-size="10.00">token </text>
<text text-anchor="start" x="35" y="-155" font-family="Arial Italic" font-size="10.00" fill="#999999">string ∗</text>
</g>
<!-- m_User -->
<g id="node4" class="node"><title>m_User</title>
<path fill="none" stroke="black" d="M185,-80.5C185,-80.5 305,-80.5 305,-80.5 311,-80.5 317,-86.5 317,-92.5 317,-92.5 317,-241.5 317,-241.5 317,-247.5 311,-253.5 305,-253.5 305,-253.5 185,-253.5 185,-253.5 179,-253.5 173,-247.5 173,-241.5 173,-241.5 173,-92.5 173,-92.5 173,-86.5 179,-80.5 185,-80.5"/>
<text text-anchor="start" x="230" y="-240.7" font-family="Arial Bold" font-size="11.00">User</text>
<polyline fill="none" stroke="black" points="173,-233.5 317,-233.5 "/>
<text text-anchor="start" x="180" y="-220" font-family="Arial" font-size="10.00">admin </text>
<text text-anchor="start" x="210" y="-220" font-family="Arial Italic" font-size="10.00" fill="#999999">boolean ∗</text>
<text text-anchor="start" x="180" y="-207" font-family="Arial" font-size="10.00">avatar </text>
<text text-anchor="start" x="209" y="-207" font-family="Arial Italic" font-size="10.00" fill="#999999">text</text>
<text text-anchor="start" x="180" y="-194" font-family="Arial" font-size="10.00">deleted </text>
<text text-anchor="start" x="215" y="-194" font-family="Arial Italic" font-size="10.00" fill="#999999">boolean ∗</text>
<text text-anchor="start" x="180" y="-181" font-family="Arial" font-size="10.00">kana_mei </text>
<text text-anchor="start" x="226" y="-181" font-family="Arial Italic" font-size="10.00" fill="#999999">string</text>
<text text-anchor="start" x="180" y="-168" font-family="Arial" font-size="10.00">kana_sei </text>
<text text-anchor="start" x="223" y="-168" font-family="Arial Italic" font-size="10.00" fill="#999999">string</text>
<text text-anchor="start" x="180" y="-155" font-family="Arial" font-size="10.00">language </text>
<text text-anchor="start" x="223" y="-155" font-family="Arial Italic" font-size="10.00" fill="#999999">string</text>
<text text-anchor="start" x="180" y="-142" font-family="Arial" font-size="10.00">lock_version </text>
<text text-anchor="start" x="237" y="-142" font-family="Arial Italic" font-size="10.00" fill="#999999">integer ∗</text>
<text text-anchor="start" x="180" y="-129" font-family="Arial" font-size="10.00">loginid </text>
<text text-anchor="start" x="211" y="-129" font-family="Arial Italic" font-size="10.00" fill="#999999">string ∗</text>
<text text-anchor="start" x="180" y="-116" font-family="Arial" font-size="10.00">mei </text>
<text text-anchor="start" x="199" y="-116" font-family="Arial Italic" font-size="10.00" fill="#999999">string</text>
<text text-anchor="start" x="180" y="-103" font-family="Arial" font-size="10.00">password </text>
<text text-anchor="start" x="225" y="-103" font-family="Arial Italic" font-size="10.00" fill="#999999">string ∗</text>
<text text-anchor="start" x="180" y="-90" font-family="Arial" font-size="10.00">sei </text>
<text text-anchor="start" x="196" y="-90" font-family="Arial Italic" font-size="10.00" fill="#999999">string</text>
</g>
<!-- m_AccessToken&#45;&gt;m_User -->
<g id="edge2" class="edge"><title>m_AccessToken&#45;&gt;m_User</title>
<path fill="none" stroke="black" stroke-dasharray="1,5" d="M144.309,-150.944C153.748,-150.353 163.188,-150.352 172.628,-150.94"/>
</g>
<!-- m_UserAccessToken -->
<g id="node5" class="node"><title>m_UserAccessToken</title>
<path fill="none" stroke="black" d="M12,-4C12,-4 132,-4 132,-4 138,-4 144,-10 144,-16 144,-16 144,-28 144,-28 144,-34 138,-40 132,-40 132,-40 12,-40 12,-40 6,-40 0,-34 0,-28 0,-28 0,-16 0,-16 0,-10 6,-4 12,-4"/>
<text text-anchor="start" x="21.5" y="-19.2" font-family="Arial Bold" font-size="11.00">UserAccessToken</text>
</g>
<!-- m_AccessToken&#45;&gt;m_UserAccessToken -->
<g id="edge1" class="edge"><title>m_AccessToken&#45;&gt;m_UserAccessToken</title>
<path fill="none" stroke="black" d="M72,-145.207C72,-116.855 72,-66.5898 72,-40.228"/>
</g>
<!-- m_Message -->
<g id="node2" class="node"><title>m_Message</title>
<path fill="none" stroke="black" d="M358,-0.5C358,-0.5 478,-0.5 478,-0.5 484,-0.5 490,-6.5 490,-12.5 490,-12.5 490,-31.5 490,-31.5 490,-37.5 484,-43.5 478,-43.5 478,-43.5 358,-43.5 358,-43.5 352,-43.5 346,-37.5 346,-31.5 346,-31.5 346,-12.5 346,-12.5 346,-6.5 352,-0.5 358,-0.5"/>
<text text-anchor="start" x="391.5" y="-30.7" font-family="Arial Bold" font-size="11.00">Message</text>
<polyline fill="none" stroke="black" points="346,-23.5 490,-23.5 "/>
<text text-anchor="start" x="353" y="-10" font-family="Arial" font-size="10.00">body </text>
<text text-anchor="start" x="378" y="-10" font-family="Arial Italic" font-size="10.00" fill="#999999">text</text>
</g>
<!-- m_TalkRoom -->
<g id="node3" class="node"><title>m_TalkRoom</title>
<path fill="none" stroke="black" d="M358,-139C358,-139 478,-139 478,-139 484,-139 490,-145 490,-151 490,-151 490,-183 490,-183 490,-189 484,-195 478,-195 478,-195 358,-195 358,-195 352,-195 346,-189 346,-183 346,-183 346,-151 346,-151 346,-145 352,-139 358,-139"/>
<text text-anchor="start" x="389.5" y="-182.2" font-family="Arial Bold" font-size="11.00">TalkRoom</text>
<polyline fill="none" stroke="black" points="346,-175 490,-175 "/>
<text text-anchor="start" x="353" y="-162" font-family="Arial" font-size="10.00">group </text>
<text text-anchor="start" x="381" y="-162" font-family="Arial Italic" font-size="10.00" fill="#999999">boolean ∗</text>
<text text-anchor="start" x="353" y="-149" font-family="Arial" font-size="10.00">title </text>
<text text-anchor="start" x="372" y="-149" font-family="Arial Italic" font-size="10.00" fill="#999999">string</text>
</g>
<!-- m_TalkRoom&#45;&gt;m_Message -->
<g id="edge3" class="edge"><title>m_TalkRoom&#45;&gt;m_Message</title>
<path fill="none" stroke="black" d="M418,-138.766C418,-114.192 418,-78.115 418,-52.783"/>
<polygon fill="black" stroke="black" points="421.15,-52.6466 418,-43.6467 414.85,-52.6467 421.15,-52.6466"/>
</g>
<!-- m_TalkRoom&#45;&gt;m_User -->
<g id="edge6" class="edge"><title>m_TalkRoom&#45;&gt;m_User</title>
<path fill="none" stroke="black" stroke-dasharray="1,5" d="M345.628,-167C339.286,-167 332.943,-167 326.601,-167"/>
<polygon fill="black" stroke="black" points="326.309,-163.85 317.309,-167 326.309,-170.15 326.309,-163.85"/>
</g>
<!-- m_UserTalkRoom -->
<g id="node6" class="node"><title>m_UserTalkRoom</title>
<path fill="none" stroke="black" d="M185,-4C185,-4 305,-4 305,-4 311,-4 317,-10 317,-16 317,-16 317,-28 317,-28 317,-34 311,-40 305,-40 305,-40 185,-40 185,-40 179,-40 173,-34 173,-28 173,-28 173,-16 173,-16 173,-10 179,-4 185,-4"/>
<text text-anchor="start" x="203.5" y="-19.2" font-family="Arial Bold" font-size="11.00">UserTalkRoom</text>
</g>
<!-- m_TalkRoom&#45;&gt;m_UserTalkRoom -->
<g id="edge5" class="edge"><title>m_TalkRoom&#45;&gt;m_UserTalkRoom</title>
<path fill="none" stroke="black" d="M393.713,-138.968C377.159,-121.256 354.28,-98.1169 332,-80 316.49,-67.3886 298.126,-55.0254 282.275,-45.0541"/>
<polygon fill="black" stroke="black" points="283.552,-42.1392 274.244,-40.0691 280.23,-47.4919 283.552,-42.1392"/>
</g>
<!-- m_User&#45;&gt;m_AccessToken -->
<g id="edge8" class="edge"><title>m_User&#45;&gt;m_AccessToken</title>
<path fill="none" stroke="black" stroke-dasharray="1,5" d="M172.628,-183.06C166.286,-183.455 159.943,-183.584 153.601,-183.447"/>
<polygon fill="black" stroke="black" points="153.433,-180.287 144.309,-183.056 153.168,-186.582 153.433,-180.287"/>
</g>
<!-- m_User&#45;&gt;m_Message -->
<g id="edge4" class="edge"><title>m_User&#45;&gt;m_Message</title>
<path fill="none" stroke="black" d="M317.135,-92.6619C322.075,-88.2762 327.056,-84.0185 332,-80 345.605,-68.9427 361.378,-58.0085 375.672,-48.7196"/>
<polygon fill="black" stroke="black" points="377.563,-51.2488 383.438,-43.738 374.162,-45.946 377.563,-51.2488"/>
</g>
<!-- m_User&#45;&gt;m_UserAccessToken -->
<g id="edge7" class="edge"><title>m_User&#45;&gt;m_UserAccessToken</title>
<path fill="none" stroke="black" d="M172.777,-91.7373C168.2,-87.6728 163.587,-83.73 159,-80 143.49,-67.3886 125.126,-55.0254 109.275,-45.0541"/>
<polygon fill="black" stroke="black" points="110.552,-42.1392 101.244,-40.0691 107.23,-47.4919 110.552,-42.1392"/>
</g>
<!-- m_User&#45;&gt;m_UserTalkRoom -->
<g id="edge9" class="edge"><title>m_User&#45;&gt;m_UserTalkRoom</title>
<path fill="none" stroke="black" d="M245,-80.3396C245,-69.1569 245,-58.4556 245,-49.3898"/>
<polygon fill="black" stroke="black" points="248.15,-49.2491 245,-40.2491 241.85,-49.2492 248.15,-49.2491"/>
</g>
</g>
</svg>
